<svg width="21" height="21" viewBox="0 0 21 21" fill="none" xmlns="http://www.w3.org/2000/svg">
<path fill-rule="evenodd" clip-rule="evenodd" d="M18.2323 0.34726C18.6953 -0.115753 19.446 -0.115753 19.909 0.34726C20.372 0.810274 20.372 1.56097 19.909 2.02398L11.8305 10.1025L19.9603 18.2323C20.4233 18.6953 20.4233 19.446 19.9603 19.909C19.4973 20.372 18.7466 20.372 18.2836 19.909L10.1538 11.7792L2.02398 19.909C1.56097 20.372 0.810274 20.372 0.34726 19.909C-0.115754 19.446 -0.115753 18.6953 0.347261 18.2323L8.47707 10.1025L0.398572 2.02398C-0.0644416 1.56097 -0.0644421 0.810274 0.398572 0.34726C0.861585 -0.115753 1.61228 -0.115753 2.07529 0.34726L10.1538 8.42576L18.2323 0.34726Z" fill="url(#paint0_linear_400_21219)"/>
<defs>
<linearGradient id="paint0_linear_400_21219" x1="-1.61872" y1="37.5585" x2="21.8847" y2="36.3592" gradientUnits="userSpaceOnUse">
<stop stop-color="white"/>
<stop offset="1" stop-color="#787878"/>
</linearGradient>
</defs>
</svg>
