<svg width="29" height="27" viewBox="0 0 29 27" fill="none" xmlns="http://www.w3.org/2000/svg">
<path d="M14.6608 9.90626C12.6768 9.90626 11.0577 11.4731 11.0577 13.3931C11.0577 15.3131 12.6768 16.88 14.6608 16.88C16.6448 16.88 18.2639 15.3131 18.2639 13.3931C18.2639 11.4731 16.6448 9.90626 14.6608 9.90626ZM25.4674 13.3931C25.4674 11.9492 25.4809 10.5184 25.3971 9.07705C25.3133 7.40295 24.9187 5.91718 23.6537 4.69299C22.386 3.46618 20.8534 3.08689 19.1234 3.0058C17.6314 2.92471 16.1529 2.93779 14.6635 2.93779C13.1715 2.93779 11.6929 2.92471 10.2036 3.0058C8.47369 3.08689 6.93839 3.4688 5.67339 4.69299C4.40569 5.91979 4.01376 7.40295 3.92997 9.07705C3.84618 10.521 3.85969 11.9518 3.85969 13.3931C3.85969 14.8344 3.84618 16.2679 3.92997 17.7092C4.01376 19.3833 4.4084 20.869 5.67339 22.0932C6.94109 23.32 8.47369 23.6993 10.2036 23.7804C11.6956 23.8615 13.1742 23.8484 14.6635 23.8484C16.1556 23.8484 17.6341 23.8615 19.1234 23.7804C20.8534 23.6993 22.3887 23.3174 23.6537 22.0932C24.9214 20.8664 25.3133 19.3833 25.3971 17.7092C25.4836 16.2679 25.4674 14.837 25.4674 13.3931ZM14.6608 18.7581C11.5929 18.7581 9.117 16.362 9.117 13.3931C9.117 10.4242 11.5929 8.02812 14.6608 8.02812C17.7287 8.02812 20.2046 10.4242 20.2046 13.3931C20.2046 16.362 17.7287 18.7581 14.6608 18.7581ZM20.4317 9.06136C19.7154 9.06136 19.137 8.50158 19.137 7.8084C19.137 7.11521 19.7154 6.55543 20.4317 6.55543C21.148 6.55543 21.7264 7.11521 21.7264 7.8084C21.7266 7.97299 21.6933 8.13602 21.6283 8.28813C21.5633 8.44024 21.468 8.57845 21.3477 8.69484C21.2274 8.81123 21.0846 8.90351 20.9274 8.9664C20.7702 9.0293 20.6018 9.06157 20.4317 9.06136Z" fill="white"/>
</svg>
