<svg width="28" height="27" viewBox="0 0 28 27" fill="none" xmlns="http://www.w3.org/2000/svg">
<path fill-rule="evenodd" clip-rule="evenodd" d="M1.47461 3.16706C1.47461 2.62302 1.69794 2.10125 2.09546 1.71655C2.49298 1.33185 3.03214 1.11573 3.59433 1.11573H24.7246C25.0032 1.11529 25.2792 1.16803 25.5367 1.27093C25.7942 1.37384 26.0282 1.52489 26.2253 1.71543C26.4224 1.90597 26.5788 2.13227 26.6854 2.38136C26.792 2.63045 26.8468 2.89745 26.8466 3.16706V23.6157C26.8469 23.8854 26.7923 24.1525 26.6858 24.4017C26.5794 24.6509 26.4232 24.8773 26.2262 25.0681C26.0292 25.2588 25.7953 25.4101 25.5378 25.5133C25.2804 25.6164 25.0044 25.6694 24.7258 25.6693H3.59433C3.31587 25.6693 3.04013 25.6162 2.78288 25.513C2.52563 25.4099 2.2919 25.2587 2.09505 25.0681C1.8982 24.8775 1.74209 24.6512 1.63563 24.4022C1.52917 24.1532 1.47446 23.8863 1.47461 23.6168V3.16706ZM11.5173 10.4773H14.9529V12.147C15.4488 11.1872 16.7174 10.3233 18.6238 10.3233C22.2785 10.3233 23.1446 12.2351 23.1446 15.743V22.2407H19.4461V16.5421C19.4461 14.5443 18.9502 13.4171 17.6908 13.4171C15.9436 13.4171 15.217 14.6325 15.217 16.5421V22.2407H11.5173V10.4773ZM5.17431 22.0878H8.87402V10.3233H5.17431V22.0867V22.0878ZM9.40337 6.48626C9.41034 6.79282 9.35398 7.09763 9.23757 7.38282C9.12117 7.668 8.94708 7.92782 8.72551 8.14701C8.50394 8.3662 8.23937 8.54036 7.94731 8.65926C7.65525 8.77816 7.34159 8.83941 7.02474 8.83941C6.70789 8.83941 6.39423 8.77816 6.10217 8.65926C5.81011 8.54036 5.54554 8.3662 5.32397 8.14701C5.1024 7.92782 4.92831 7.668 4.81191 7.38282C4.69551 7.09763 4.63914 6.79282 4.64611 6.48626C4.65981 5.88454 4.91642 5.31192 5.36101 4.89104C5.8056 4.47017 6.40281 4.2345 7.02474 4.2345C7.64667 4.2345 8.24388 4.47017 8.68847 4.89104C9.13306 5.31192 9.38968 5.88454 9.40337 6.48626Z" fill="white"/>
</svg>
