<svg width="18" height="20" viewBox="0 0 18 20" fill="none" xmlns="http://www.w3.org/2000/svg">
<path d="M17.6682 17.0864L14.2379 13.6561C15.517 12.2219 16.3117 10.3227 16.3117 8.24909C16.3117 3.77233 12.6682 0.128906 8.19147 0.128906C3.71471 0.128906 0.0712891 3.77233 0.0712891 8.24909C0.0712891 12.7259 3.71471 16.3693 8.19147 16.3693C9.78069 16.3693 11.2535 15.9041 12.4938 15.129L16.0597 18.6949C16.2729 18.908 16.5636 19.0243 16.8543 19.0243C17.145 19.0243 17.4358 18.908 17.6489 18.6949C18.114 18.2492 18.114 17.532 17.6683 17.0863L17.6682 17.0864ZM2.3387 8.24913C2.3387 5.03202 4.95506 2.39639 8.19144 2.39639C11.4278 2.39639 14.0248 5.03206 14.0248 8.24913C14.0248 11.4662 11.4084 14.1019 8.19144 14.1019C4.97444 14.1019 2.3387 11.4855 2.3387 8.24913Z" fill="white"/>
</svg>
