<svg width="29" height="27" viewBox="0 0 29 27" fill="none" xmlns="http://www.w3.org/2000/svg">
<path d="M24.2791 15.1352C24.3899 14.5466 24.4494 13.945 24.4494 13.3434C24.4494 12.0093 24.1791 10.7145 23.6466 9.49815C23.1331 8.32105 22.3951 7.26427 21.4572 6.35659C20.5271 5.4542 19.4245 4.73546 18.2109 4.24041C16.9513 3.7251 15.6161 3.46352 14.2375 3.46352C13.5888 3.46352 12.9374 3.52368 12.3049 3.64139C11.4297 3.19258 10.4545 2.95733 9.46406 2.95605C7.85038 2.95605 6.3313 3.56553 5.19064 4.6694C4.62778 5.21131 4.1815 5.85582 3.87761 6.56566C3.57372 7.27551 3.41825 8.03661 3.42018 8.80497C3.42018 9.79897 3.68508 10.7773 4.17972 11.6405C4.07971 12.2003 4.02565 12.7731 4.02565 13.3434C4.02565 14.6774 4.29595 15.9722 4.82844 17.1886C5.34201 18.3657 6.07722 19.4225 7.01515 20.3302C7.95309 21.2378 9.0451 21.9493 10.2614 22.4463C11.521 22.9616 12.8563 23.2232 14.2348 23.2232C14.8349 23.2232 15.435 23.1709 16.0242 23.0689C16.9297 23.5633 17.9514 23.8275 18.9975 23.8275C20.6112 23.8275 22.1302 23.2206 23.2709 22.1141C24.4143 21.0103 25.0414 19.5402 25.0414 17.9786C25.0441 16.9846 24.7792 16.0036 24.2791 15.1352ZM14.2781 19.3963C10.6507 19.3963 9.02888 17.6699 9.02888 16.3777C9.02888 15.7133 9.53434 15.2503 10.2317 15.2503C11.7832 15.2503 11.3832 17.4083 14.2781 17.4083C15.762 17.4083 16.581 16.6288 16.581 15.831C16.581 15.3523 16.3377 14.8187 15.3593 14.5859L12.1319 13.8064C9.53434 13.176 9.06131 11.8157 9.06131 10.5392C9.06131 7.88682 11.6427 6.89021 14.0672 6.89021C16.2999 6.89021 18.9326 8.08562 18.9326 9.67603C18.9326 10.3587 18.3217 10.7537 17.6244 10.7537C16.2999 10.7537 16.5432 8.98023 13.8753 8.98023C12.5509 8.98023 11.8184 9.56093 11.8184 10.3901C11.8184 11.2193 12.8644 11.4835 13.7726 11.685L16.1621 12.1976C18.7785 12.7627 19.4408 14.2406 19.4408 15.6322C19.4408 17.785 17.7298 19.3963 14.2781 19.3963Z" fill="white"/>
</svg>
