<svg width="95" height="95" viewBox="0 0 95 95" fill="none" xmlns="http://www.w3.org/2000/svg">
<path d="M45 78.65C45 80.0307 46.1193 81.15 47.5 81.15C48.8807 81.15 50 80.0307 50 78.65H45ZM50 16.35C50 14.9693 48.8807 13.85 47.5 13.85C46.1193 13.85 45 14.9693 45 16.35H50ZM59.0732 31.2915C59.7636 32.4873 61.2925 32.897 62.4883 32.2066C63.684 31.5162 64.0937 29.9873 63.4033 28.7915L59.0732 31.2915ZM59.567 27.1468L57.4019 28.3968V28.3968L59.567 27.1468ZM43.6288 46.0759L44.4919 43.7296L44.4918 43.7296L43.6288 46.0759ZM51.3722 48.9241L52.2352 46.5778L52.2351 46.5778L51.3722 48.9241ZM35.434 67.8532L33.2689 69.1032L35.434 67.8532ZM35.9278 63.7085C35.2374 62.5128 33.7084 62.1031 32.5127 62.7934C31.317 63.4838 30.9073 65.0128 31.5976 66.2085L35.9278 63.7085ZM53.4091 72.6696L52.1591 70.5046L53.4091 72.6696ZM41.5919 22.3304L42.8419 24.4955L41.5919 22.3304ZM89.5 47.5C89.5 70.696 70.696 89.5 47.5 89.5V94.5C73.4574 94.5 94.5 73.4574 94.5 47.5H89.5ZM47.5 89.5C24.304 89.5 5.5 70.696 5.5 47.5H0.5C0.5 73.4574 21.5426 94.5 47.5 94.5V89.5ZM5.5 47.5C5.5 24.304 24.304 5.5 47.5 5.5V0.5C21.5426 0.5 0.5 21.5426 0.5 47.5H5.5ZM47.5 5.5C70.696 5.5 89.5 24.304 89.5 47.5H94.5C94.5 21.5426 73.4574 0.5 47.5 0.5V5.5ZM63.4033 28.7915L61.7321 25.8968L57.4019 28.3968L59.0732 31.2915L63.4033 28.7915ZM37.599 66.6032L35.9278 63.7085L31.5976 66.2085L33.2689 69.1032L37.599 66.6032ZM50.5092 51.2704C58.9905 54.39 59.9852 65.9861 52.1591 70.5046L54.6591 74.8347C66.1564 68.1967 64.6951 51.1608 52.2352 46.5778L50.5092 51.2704ZM40.3419 20.1654C28.8445 26.8034 30.3059 43.8393 42.7658 48.4223L44.4918 43.7296C36.0105 40.61 35.0158 29.0139 42.8419 24.4955L40.3419 20.1654ZM50 78.65V74.4183H45V78.65H50ZM50 74.4183V47.5H45V74.4183H50ZM52.1591 70.5046C50.6414 71.3808 49.0047 71.8396 47.3747 71.9214L47.6253 76.9151C50.0287 76.7945 52.439 76.1164 54.6591 74.8347L52.1591 70.5046ZM47.3747 71.9214C43.5001 72.1158 39.6666 70.1843 37.599 66.6032L33.2689 69.1032C36.3107 74.3718 41.9503 77.1999 47.6253 76.9151L47.3747 71.9214ZM42.7657 48.4222L46.6369 49.8463L48.3631 45.1537L44.4919 43.7296L42.7657 48.4222ZM46.6371 49.8463L50.5093 51.2705L52.2351 46.5778L48.3629 45.1536L46.6371 49.8463ZM50 47.5L50 20.5818H45L45 47.5L50 47.5ZM50 20.5818V16.35H45V20.5818H50ZM61.7321 25.8968C58.69 20.6279 53.0499 17.7998 47.3745 18.085L47.6255 23.0787C51.5004 22.884 55.3343 24.8155 57.4019 28.3968L61.7321 25.8968ZM47.3745 18.085C44.9715 18.2057 42.5616 18.8838 40.3419 20.1654L42.8419 24.4955C44.3593 23.6194 45.9957 23.1606 47.6255 23.0787L47.3745 18.085Z" fill="url(#paint0_linear_312_72)"/>
<defs>
<linearGradient id="paint0_linear_312_72" x1="-4.0942" y1="168.021" x2="98.9131" y2="162.778" gradientUnits="userSpaceOnUse">
<stop stop-color="#95F400"/>
<stop offset="1" stop-color="#159833"/>
</linearGradient>
</defs>
</svg>
