<svg width="30" height="30" viewBox="0 0 30 30" fill="none" xmlns="http://www.w3.org/2000/svg">
<path d="M15 0C6.71562 0 0 6.71625 0 15C0 23.2844 6.71562 30 15 30C23.2844 30 30 23.285 30 15C30 6.71625 23.2844 0 15 0ZM15.0181 27.4025C8.12875 27.4025 2.54375 21.8175 2.54375 14.9288C2.54375 8.04 8.12875 2.45375 15.0181 2.45375C21.9069 2.45375 27.4925 8.03875 27.4925 14.9281C27.4925 21.8175 21.9075 27.4025 15.0181 27.4025Z" fill="url(#paint0_linear_342_50439)"/>
<path d="M16.3136 13.6888H20.3498C20.5405 13.6925 21.2692 13.7544 21.2698 14.4925V15.4788C21.2698 16.1725 20.7073 16.295 20.4236 16.3119H16.3105L9.56047 16.3113C8.79734 16.3113 8.73422 15.7294 8.73047 15.575V14.4444C8.73359 14.2763 8.79797 13.6882 9.56047 13.6882L16.3136 13.6888Z" fill="url(#paint1_linear_342_50439)"/>
<defs>
<linearGradient id="paint0_linear_342_50439" x1="28.1818" y1="30" x2="0" y2="30" gradientUnits="userSpaceOnUse">
<stop stop-color="#D3D3D3"/>
<stop offset="0.28125" stop-color="white"/>
<stop offset="0.729167" stop-color="white"/>
<stop offset="1" stop-color="#D3D3D3"/>
</linearGradient>
<linearGradient id="paint1_linear_342_50439" x1="20.5099" y1="16.3119" x2="8.73047" y2="16.3119" gradientUnits="userSpaceOnUse">
<stop stop-color="#D3D3D3"/>
<stop offset="0.28125" stop-color="white"/>
<stop offset="0.729167" stop-color="white"/>
<stop offset="1" stop-color="#D3D3D3"/>
</linearGradient>
</defs>
</svg>
