<svg width="89" height="89" viewBox="0 0 89 89" fill="none" xmlns="http://www.w3.org/2000/svg">
<path fill-rule="evenodd" clip-rule="evenodd" d="M44.3431 2.54943e-07H44.6569C53.2624 -2.07904e-05 59.9296 -3.69598e-05 65.2019 0.571183C70.554 1.15105 74.7707 2.34401 78.3414 4.93825C80.5365 6.5331 82.4669 8.46352 84.0618 10.6586C86.656 14.2293 87.849 18.446 88.4288 23.7981C89 29.0704 89 35.7376 89 44.343V44.657C89 53.2624 89 59.9296 88.4288 65.2019C87.849 70.554 86.656 74.7707 84.0618 78.3414C82.4669 80.5365 80.5365 82.4669 78.3414 84.0618C74.7707 86.656 70.554 87.849 65.2019 88.4288C59.9296 89 53.2624 89 44.657 89H44.343C35.7376 89 29.0704 89 23.7981 88.4288C18.446 87.849 14.2293 86.656 10.6586 84.0618C8.46352 82.4669 6.5331 80.5365 4.93825 78.3414C2.34401 74.7707 1.15105 70.554 0.571183 65.2019C-3.69598e-05 59.9296 -2.07904e-05 53.2624 2.54943e-07 44.6569V44.3431C-2.07904e-05 35.7376 -3.69598e-05 29.0705 0.571183 23.7981C1.15105 18.446 2.34401 14.2293 4.93825 10.6586C6.5331 8.46352 8.46352 6.5331 10.6586 4.93825C14.2293 2.34401 18.446 1.15105 23.7981 0.571183C29.0705 -3.69598e-05 35.7376 -2.07904e-05 44.3431 2.54943e-07ZM24.3482 5.64803C19.4306 6.18082 16.2153 7.21317 13.6602 9.06954C11.8986 10.3494 10.3494 11.8986 9.06954 13.6602C7.21317 16.2153 6.18082 19.4306 5.64803 24.3482C5.11006 29.3136 5.10656 35.7048 5.10656 44.5C5.10656 53.2952 5.11006 59.6864 5.64803 64.6518C6.18082 69.5694 7.21317 72.7847 9.06954 75.3398C10.3494 77.1014 11.8986 78.6506 13.6602 79.9305C16.2153 81.7868 19.4306 82.8192 24.3482 83.352C29.3136 83.8899 35.7048 83.8934 44.5 83.8934C53.2952 83.8934 59.6864 83.8899 64.6518 83.352C69.5694 82.8192 72.7847 81.7868 75.3398 79.9305C77.1014 78.6506 78.6506 77.1014 79.9305 75.3398C81.7868 72.7847 82.8192 69.5694 83.352 64.6518C83.8899 59.6864 83.8934 53.2952 83.8934 44.5C83.8934 35.7048 83.8899 29.3136 83.352 24.3482C82.8192 19.4306 81.7868 16.2153 79.9305 13.6602C78.6506 11.8986 77.1014 10.3494 75.3398 9.06954C72.7847 7.21317 69.5694 6.18082 64.6518 5.64803C59.6864 5.11006 53.2952 5.10656 44.5 5.10656C35.7048 5.10656 29.3136 5.11006 24.3482 5.64803ZM44.5 18.643C45.9101 18.643 47.0533 19.7861 47.0533 21.1963V67.8037C47.0533 69.2139 45.9101 70.357 44.5 70.357C43.0899 70.357 41.9467 69.2139 41.9467 67.8037V21.1963C41.9467 19.7861 43.0899 18.643 44.5 18.643ZM63.143 37.286C64.5531 37.286 65.6963 38.4291 65.6963 39.8393V67.8037C65.6963 69.2139 64.5531 70.357 63.143 70.357C61.7329 70.357 60.5897 69.2139 60.5897 67.8037V39.8393C60.5897 38.4291 61.7329 37.286 63.143 37.286ZM25.857 46.6075C27.2672 46.6075 28.4103 47.7506 28.4103 49.1608V67.8037C28.4103 69.2139 27.2672 70.357 25.857 70.357C24.4469 70.357 23.3037 69.2139 23.3037 67.8037V49.1608C23.3037 47.7506 24.4469 46.6075 25.857 46.6075Z" fill="url(#paint0_linear_312_74)"/>
<defs>
<linearGradient id="paint0_linear_312_74" x1="-7.0942" y1="165.021" x2="95.9131" y2="159.778" gradientUnits="userSpaceOnUse">
<stop stop-color="#95F400"/>
<stop offset="1" stop-color="#159833"/>
</linearGradient>
</defs>
</svg>
