<svg width="95" height="95" viewBox="0 0 95 95" fill="none" xmlns="http://www.w3.org/2000/svg">
<path d="M29.7 47.5H27.2H29.7ZM65.3 47.5L67.8 47.5L65.3 47.5ZM47.5 65.3L47.5 67.8L47.5 65.3ZM47.5 38.6V41.1V38.6ZM56.7089 91.046L57.2236 93.4924L56.7089 91.046ZM38.2912 91.046L37.7764 93.4924L38.2912 91.046ZM6.28681 30.6843L3.97241 29.739H3.97241L6.28681 30.6843ZM3.954 56.7088L1.50757 57.2236L3.954 56.7088ZM38.2911 3.954L37.7764 1.50757L38.2911 3.954ZM56.7089 3.954L57.2236 1.50758L56.7089 3.954ZM88.3547 30.8449L87.6291 28.4525L88.3547 30.8449ZM6.63995 30.8433L5.91428 33.2356L6.63995 30.8433ZM86.4035 31.6411C88.399 36.5311 89.5 41.8838 89.5 47.5H94.5C94.5 41.225 93.2689 35.2313 91.0328 29.7519L86.4035 31.6411ZM89.5 47.5C89.5 50.4832 89.1894 53.3911 88.5996 56.1941L93.4924 57.2236C94.153 54.0841 94.5 50.8312 94.5 47.5H89.5ZM88.5996 56.1941C85.1872 72.4108 72.4109 85.1872 56.1941 88.5996L57.2236 93.4924C75.3801 89.6719 89.6719 75.3801 93.4924 57.2236L88.5996 56.1941ZM56.1941 88.5996C53.3911 89.1894 50.4832 89.5 47.5 89.5V94.5C50.8312 94.5 54.0841 94.153 57.2236 93.4924L56.1941 88.5996ZM47.5 89.5C44.5168 89.5 41.6089 89.1894 38.8059 88.5996L37.7764 93.4924C40.9159 94.153 44.1688 94.5 47.5 94.5V89.5ZM5.5 47.5C5.5 41.8795 6.60269 36.5227 8.60121 31.6296L3.97241 29.739C1.73299 35.2219 0.500001 41.2201 0.500001 47.5H5.5ZM38.8059 88.5996C22.5892 85.1872 9.81276 72.4108 6.40043 56.1941L1.50757 57.2236C5.32806 75.3801 19.6199 89.6719 37.7764 93.4924L38.8059 88.5996ZM6.40043 56.1941C5.81062 53.3911 5.5 50.4832 5.5 47.5H0.500001C0.500001 50.8312 0.846959 54.0841 1.50757 57.2236L6.40043 56.1941ZM8.60121 31.6296C13.8013 18.8979 25.0722 9.29028 38.8059 6.40043L37.7764 1.50757C22.3939 4.74436 9.79002 15.4955 3.97241 29.739L8.60121 31.6296ZM38.8059 6.40043C41.6089 5.81062 44.5168 5.5 47.5 5.5V0.5C44.1688 0.5 40.9159 0.846959 37.7764 1.50757L38.8059 6.40043ZM47.5 5.5C50.4832 5.5 53.3911 5.81062 56.1941 6.40043L57.2236 1.50758C54.0841 0.84696 50.8312 0.5 47.5 0.5V5.5ZM56.1941 6.40043C69.9319 9.29116 81.2055 18.9037 86.4035 31.6411L91.0328 29.7519C85.2176 15.5019 72.6107 4.74534 57.2236 1.50758L56.1941 6.40043ZM54.3272 4.71395C55.5573 8.56933 60.1217 23.4275 61.995 37.1017L66.9487 36.4231C65.0133 22.2956 60.3345 7.0925 59.0906 3.19406L54.3272 4.71395ZM61.995 37.1017C62.4975 40.7702 62.8 44.3101 62.8 47.5L67.8 47.5C67.8 44.0143 67.4711 40.2362 66.9487 36.4231L61.995 37.1017ZM87.6291 28.4525C82.732 29.9378 73.5254 32.5493 64.0181 34.3039L64.9256 39.2209C74.6963 37.4176 84.1043 34.7465 89.0804 33.2373L87.6291 28.4525ZM64.0181 34.3039C58.254 35.3677 52.4658 36.1 47.5 36.1L47.5 41.1C52.8977 41.1 59.0211 40.3106 64.9256 39.2209L64.0181 34.3039ZM62.8 47.5C62.8 52.2218 62.1378 57.69 61.1566 63.1776L66.0786 64.0576C67.0853 58.4272 67.8 52.6363 67.8 47.5L62.8 47.5ZM61.1566 63.1776C59.0056 75.2082 55.395 86.9393 54.3272 90.286L59.0906 91.8059C60.1794 88.3936 63.8691 76.4149 66.0786 64.0576L61.1566 63.1776ZM90.286 54.3272C86.9393 55.395 75.2082 59.0056 63.1776 61.1566L64.0576 66.0786C76.4149 63.8691 88.3936 60.1793 91.8059 59.0905L90.286 54.3272ZM63.1776 61.1566C57.69 62.1378 52.2218 62.8 47.5 62.8L47.5 67.8C52.6363 67.8 58.4272 67.0853 64.0576 66.0786L63.1776 61.1566ZM47.5 62.8C42.7782 62.8 37.31 62.1378 31.8224 61.1566L30.9424 66.0786C36.5728 67.0853 42.3637 67.8 47.5 67.8L47.5 62.8ZM31.8224 61.1566C19.7918 59.0056 8.06067 55.395 4.71395 54.3271L3.19405 59.0905C6.60638 60.1793 18.5851 63.8691 30.9424 66.0786L31.8224 61.1566ZM27.2 47.5C27.2 52.6363 27.9147 58.4272 28.9214 64.0576L33.8434 63.1776C32.8622 57.69 32.2 52.2218 32.2 47.5L27.2 47.5ZM28.9214 64.0576C31.1309 76.4149 34.8207 88.3936 35.9095 91.8059L40.6729 90.286C39.605 86.9393 35.9944 75.2082 33.8434 63.1776L28.9214 64.0576ZM35.9095 3.19405C34.6655 7.09249 29.9867 22.2956 28.0513 36.4231L33.005 37.1017C34.8783 23.4275 39.4427 8.56932 40.6728 4.71395L35.9095 3.19405ZM28.0513 36.4231C27.5289 40.2362 27.2 44.0143 27.2 47.5L32.2 47.5C32.2 44.3101 32.5025 40.7702 33.005 37.1017L28.0513 36.4231ZM47.5 36.1C42.5342 36.1 36.746 35.3677 30.9819 34.3039L30.0744 39.2209C35.9789 40.3106 42.1023 41.1 47.5 41.1L47.5 36.1ZM30.9819 34.3039C21.4711 32.5487 12.2614 29.9359 7.36562 28.4509L5.91428 33.2356C10.889 34.7446 20.3002 37.417 30.0744 39.2209L30.9819 34.3039ZM87.5661 28.4778C87.5722 28.4746 87.5816 28.4701 87.5936 28.4651C87.6057 28.4602 87.6178 28.4559 87.6291 28.4525L89.0804 33.2373C89.3587 33.1528 89.6208 33.0447 89.8702 32.9152L87.5661 28.4778ZM4.9825 32.8171C5.26954 32.9926 5.57998 33.1342 5.91428 33.2356L7.36562 28.4509C7.44979 28.4764 7.52708 28.5124 7.59112 28.5515L4.9825 32.8171Z" fill="url(#paint0_linear_312_106)"/>
<defs>
<linearGradient id="paint0_linear_312_106" x1="-4.0942" y1="168.021" x2="98.9131" y2="162.778" gradientUnits="userSpaceOnUse">
<stop stop-color="#95F400"/>
<stop offset="1" stop-color="#159833"/>
</linearGradient>
</defs>
</svg>
