<svg width="30" height="30" viewBox="0 0 30 30" fill="none" xmlns="http://www.w3.org/2000/svg">
<path d="M15 0C6.71562 0 0 6.71625 0 15C0 23.2844 6.71562 30 15 30C23.2844 30 30 23.285 30 15C30 6.71625 23.2844 0 15 0ZM15.0181 27.4025C8.12875 27.4025 2.54375 21.8175 2.54375 14.9288C2.54375 8.04 8.12875 2.45375 15.0181 2.45375C21.9069 2.45375 27.4925 8.03875 27.4925 14.9281C27.4925 21.8175 21.9075 27.4025 15.0181 27.4025Z" fill="url(#paint0_linear_332_152)"/>
<path d="M20.35 13.6887H16.3137L16.3187 9.57873C16.3025 9.29498 16.1806 8.73248 15.4868 8.73123L14.5 8.72998C13.7618 8.72936 13.6987 9.45811 13.695 9.64873L13.69 13.6881H9.56059C8.79809 13.6881 8.73372 14.2762 8.73059 14.4444V15.575C8.73434 15.7294 8.79747 16.3112 9.56059 16.3112H13.6868L13.6818 20.4375C13.6806 21.1994 14.2687 21.265 14.4375 21.2687L15.5681 21.27C15.7225 21.2662 16.3043 21.2031 16.3056 20.4412L16.3106 16.3119H20.4237C20.7075 16.295 21.27 16.1725 21.27 15.4787V14.4925C21.2693 13.7544 20.5406 13.6925 20.35 13.6887Z" fill="url(#paint1_linear_332_152)"/>
<defs>
<linearGradient id="paint0_linear_332_152" x1="-2.3913" y1="55.625" x2="32.3303" y2="53.8578" gradientUnits="userSpaceOnUse">
<stop stop-color="#95F400"/>
<stop offset="1" stop-color="#159833"/>
</linearGradient>
<linearGradient id="paint1_linear_332_152" x1="7.73108" y1="31.9812" x2="22.244" y2="31.2426" gradientUnits="userSpaceOnUse">
<stop stop-color="#95F400"/>
<stop offset="1" stop-color="#159833"/>
</linearGradient>
</defs>
</svg>
