<svg width="95" height="95" viewBox="0 0 95 95" fill="none" xmlns="http://www.w3.org/2000/svg">
<path d="M31.6733 80.6326L29.925 82.4196H29.925L31.6733 80.6326ZM31.6342 80.5945L29.8959 82.3911H29.8959L31.6342 80.5945ZM28.1182 79.1859L28.1312 76.6859L28.1182 79.1859ZM66.8818 79.1859L66.8688 76.6859L66.8818 79.1859ZM63.3267 80.6325L61.5784 78.8455L63.3267 80.6325ZM63.3658 80.5945L65.1041 82.3911L63.3658 80.5945ZM61.7496 82.1754L63.4979 83.9625L61.7496 82.1754ZM33.2504 82.1754L34.9986 80.3884H34.9986L33.2504 82.1754ZM47.5 92V94.5V92ZM3.00144 56.158L0.501604 56.1867L3.00144 56.158ZM27.4554 79.1844L27.43 81.6843L27.4554 79.1844ZM91.9986 56.158L94.4984 56.1867L91.9986 56.158ZM67.5446 79.1844L67.57 81.6843L67.5446 79.1844ZM79.1259 5.84752L77.9827 8.07084L79.1259 5.84752ZM88.976 15.1226L86.8133 16.3767L88.976 15.1226ZM15.8741 5.84752L17.0173 8.07084L15.8741 5.84752ZM6.02405 15.1226L8.18673 16.3767L6.02405 15.1226ZM14.2226 75.4118L12.9132 77.5415L14.2226 75.4118ZM80.7774 75.4118L82.0868 77.5415L80.7774 75.4118ZM64.7778 30.9348C64.7778 39.6998 57.1861 47.058 47.5 47.058V52.058C59.6599 52.058 69.7778 42.7403 69.7778 30.9348H64.7778ZM47.5 47.058C37.8139 47.058 30.2222 39.6998 30.2222 30.9348H25.2222C25.2222 42.7403 35.3401 52.058 47.5 52.058V47.058ZM30.2222 30.9348C30.2222 22.1697 37.8139 14.8116 47.5 14.8116V9.8116C35.3401 9.8116 25.2222 19.1292 25.2222 30.9348H30.2222ZM47.5 14.8116C57.1861 14.8116 64.7778 22.1697 64.7778 30.9348H69.7778C69.7778 19.1292 59.6599 9.8116 47.5 9.8116V14.8116ZM43.4546 5.5H51.5454V0.5H43.4546V5.5ZM89.5 41.0929V55.587H94.5V41.0929H89.5ZM5.5 55.5869V41.0929H0.5V55.5869H5.5ZM61.5784 78.8455L60.0013 80.3884L63.4979 83.9625L65.075 82.4196L61.5784 78.8455ZM34.9986 80.3884L33.4216 78.8455L29.925 82.4196L31.5021 83.9625L34.9986 80.3884ZM33.4216 78.8455C33.4042 78.8285 33.3883 78.813 33.3726 78.7978L29.8959 82.3911C29.8992 82.3944 29.903 82.3981 29.925 82.4196L33.4216 78.8455ZM28.0619 81.6858C28.0929 81.6858 28.0995 81.6858 28.1051 81.6858L28.1312 76.6859C28.1095 76.6858 28.0877 76.6858 28.0619 76.6858V81.6858ZM33.3726 78.7978C31.97 77.4406 30.0788 76.696 28.1312 76.6859L28.1051 81.6858C28.8078 81.6895 29.4501 81.9598 29.8959 82.3911L33.3726 78.7978ZM66.9381 76.6858C66.9123 76.6858 66.8905 76.6858 66.8688 76.6859L66.8949 81.6858C66.9005 81.6858 66.9071 81.6858 66.9381 81.6858V76.6858ZM65.075 82.4196C65.0961 82.399 65.1006 82.3946 65.1041 82.3911L61.6274 78.7978C61.6119 78.8128 61.5967 78.8276 61.5784 78.8455L65.075 82.4196ZM66.8688 76.6859C64.9212 76.696 63.03 77.4406 61.6274 78.7978L65.1041 82.3911C65.5499 81.9598 66.1922 81.6895 66.8949 81.6858L66.8688 76.6859ZM60.0013 80.3884C56.6034 83.7126 54.2316 86.0255 52.1991 87.5385C50.2297 89.0045 48.8598 89.5 47.5 89.5L47.5 94.5C50.3474 94.5 52.7549 93.358 55.1847 91.5492C57.5515 89.7874 60.2009 87.1879 63.4979 83.9625L60.0013 80.3884ZM31.5021 83.9625C34.7991 87.1879 37.4485 89.7874 39.8153 91.5492C42.2451 93.358 44.6526 94.5 47.5 94.5L47.5 89.5C46.1402 89.5 44.7703 89.0045 42.8009 87.5385C40.7684 86.0255 38.3966 83.7126 34.9986 80.3884L31.5021 83.9625ZM0.5 55.5869C0.5 55.877 0.499959 56.0431 0.501604 56.1867L5.50128 56.1294C5.50004 56.0217 5.5 55.8909 5.5 55.5869H0.5ZM28.0619 76.6858C27.7403 76.6858 27.5983 76.6858 27.4808 76.6846L27.43 81.6843C27.5793 81.6858 27.7527 81.6858 28.0619 81.6858V76.6858ZM89.5 55.587C89.5 55.8908 89.5 56.0217 89.4987 56.1294L94.4984 56.1867C94.5 56.0431 94.5 55.877 94.5 55.587H89.5ZM66.9381 81.6858C67.2473 81.6858 67.4207 81.6858 67.57 81.6843L67.5192 76.6846C67.4017 76.6858 67.2597 76.6858 66.9381 76.6858V81.6858ZM51.5454 5.5C58.9342 5.5 64.3255 5.50194 68.5663 5.84767C72.7799 6.19119 75.6303 6.86128 77.9827 8.07084L80.2691 3.62419C77.0834 1.98623 73.491 1.23257 68.9726 0.864206C64.4814 0.498061 58.8516 0.5 51.5454 0.5V5.5ZM94.5 41.0929C94.5 34.2209 94.5025 28.8976 94.1115 24.6455C93.7171 20.356 92.9066 16.9173 91.1386 13.8684L86.8133 16.3767C88.0693 18.5427 88.7709 21.1706 89.1325 25.1033C89.4975 29.0734 89.5 34.1279 89.5 41.0929H94.5ZM77.9827 8.07084C81.7316 9.99838 84.7902 12.8881 86.8133 16.3767L91.1386 13.8684C88.619 9.52344 84.8394 5.97412 80.2691 3.62419L77.9827 8.07084ZM43.4546 0.5C36.1484 0.5 30.5186 0.498061 26.0274 0.864206C21.5091 1.23257 17.9166 1.98623 14.731 3.62419L17.0173 8.07084C19.3697 6.86128 22.2201 6.19119 26.4337 5.84767C30.6745 5.50194 36.0658 5.5 43.4546 5.5V0.5ZM5.5 41.0929C5.5 34.1279 5.50246 29.0734 5.86751 25.1033C6.22911 21.1706 6.93069 18.5427 8.18673 16.3767L3.86138 13.8684C2.09337 16.9173 1.28291 20.356 0.888508 24.6455C0.497539 28.8976 0.5 34.2209 0.5 41.0929H5.5ZM14.731 3.62419C10.1606 5.97412 6.38101 9.52344 3.86138 13.8684L8.18673 16.3767C10.2098 12.8881 13.2684 9.99838 17.0173 8.07084L14.731 3.62419ZM32.6667 66.0254H62.3333V61.0254H32.6667V66.0254ZM32.6667 61.0254C23.2905 61.0254 15.1782 66.5339 11.9113 74.459L16.5339 76.3646C19.0015 70.3786 25.2429 66.0254 32.6667 66.0254V61.0254ZM0.501604 56.1867C0.604771 65.1879 5.56443 73.0232 12.9132 77.5415L15.532 73.2821C9.50613 69.5772 5.58296 63.2565 5.50128 56.1294L0.501604 56.1867ZM12.9132 77.5415C17.1066 80.1198 22.0905 81.6301 27.43 81.6843L27.4808 76.6846C23.0586 76.6396 18.961 75.3904 15.532 73.2821L12.9132 77.5415ZM62.3333 66.0254C69.7571 66.0254 75.9985 70.3786 78.4661 76.3646L83.0888 74.459C79.8218 66.5339 71.7095 61.0254 62.3333 61.0254V66.0254ZM89.4987 56.1294C89.417 63.2565 85.4939 69.5772 79.468 73.2821L82.0868 77.5415C89.4356 73.0232 94.3952 65.1879 94.4984 56.1867L89.4987 56.1294ZM79.468 73.2821C76.039 75.3904 71.9414 76.6396 67.5192 76.6846L67.57 81.6843C72.9095 81.6301 77.8934 80.1198 82.0868 77.5415L79.468 73.2821Z" fill="url(#paint0_linear_312_71)"/>
<defs>
<linearGradient id="paint0_linear_312_71" x1="-4.0942" y1="168.021" x2="98.9131" y2="162.778" gradientUnits="userSpaceOnUse">
<stop stop-color="#95F400"/>
<stop offset="1" stop-color="#159833"/>
</linearGradient>
</defs>
</svg>
