<svg width="32" height="24" viewBox="0 0 32 24" fill="none" xmlns="http://www.w3.org/2000/svg">
<path d="M31.0416 6.31433V19.5938C31.0416 21.8896 29.1812 23.75 26.8853 23.75H5.1145C4.0122 23.75 2.95504 23.3121 2.17559 22.5327C1.39614 21.7532 0.958252 20.6961 0.958252 19.5938V6.31433L15.5233 14.326C15.8202 14.4891 16.1804 14.4891 16.4765 14.326L31.0416 6.31354V6.31433ZM26.8853 1.78745e-08C27.9703 0.000100823 29.0122 0.424454 29.7885 1.18241C30.5648 1.94037 31.014 2.97185 31.04 4.0565L15.9999 12.3294L0.959835 4.05571L0.961419 3.98446C1.00575 2.91275 1.46271 1.89967 2.23672 1.15708C3.01074 0.414494 4.04187 -9.93961e-05 5.1145 1.78745e-08H26.8853Z" fill="white"/>
</svg>
